<svg version="1.1" xmlns="http://www.w3.org/2000/svg" xmlns:xlink="http://www.w3.org/1999/xlink" width="24" height="24" viewBox="0,0,256,256"><g fill="none" fill-rule="nonzero" stroke="#403f3d" stroke-width="1" stroke-linecap="round" stroke-linejoin="round" stroke-miterlimit="10" stroke-dasharray="" stroke-dashoffset="0" font-family="none" font-weight="none" font-size="none" text-anchor="none" style="mix-blend-mode: normal"><g transform="translate(0,0.30012) scale(10.66667,10.66667)"><path d="M23,3.01006c0,0 -2.0179,1.19211 -3.14,1.53c-0.6023,-0.69249 -1.4027,-1.18331 -2.293,-1.40608c-0.8903,-0.22276 -1.8275,-0.16673 -2.6849,0.16053c-0.8574,0.32726 -1.5937,0.90995 -2.1091,1.66926c-0.5155,0.75932 -0.7853,1.65862 -0.773,2.57629v1c-1.7574,0.04556 -3.49873,-0.34419 -5.06899,-1.13456c-1.57027,-0.79037 -2.92069,-1.95681 -3.93101,-3.39544c0,0 -4,9.00004 5,13.00004c-2.05947,1.3979 -4.51284,2.0989 -7,2c9,5 20,0 20,-11.50004c-0.0009,-0.27855 -0.0277,-0.55641 -0.08,-0.83c1.0206,-1.00651 2.08,-3.67 2.08,-3.67z"></path></g></g></svg>